<mxfile host="app.diagrams.net" agent="Mozilla/5.0 (Macintosh; Intel Mac OS X 10_15_7) AppleWebKit/537.36 (KHTML, like Gecko) Chrome/139.0.0.0 Safari/537.36" version="28.1.2">
  <diagram name="Page-1" id="SLrPYidmnxbWip5KXpHm">
    <mxGraphModel dx="542" dy="410" grid="1" gridSize="10" guides="1" tooltips="1" connect="1" arrows="1" fold="1" page="1" pageScale="1" pageWidth="850" pageHeight="1100" math="0" shadow="0">
      <root>
        <mxCell id="0" />
        <mxCell id="1" parent="0" />
        <mxCell id="bZb782lT2qDtfBGyyS4E-2" value="" style="html=1;verticalLabelPosition=bottom;labelBackgroundColor=#ffffff;verticalAlign=top;shadow=0;dashed=0;strokeWidth=1;shape=mxgraph.ios7.misc.iphone;strokeColor=light-dark(#001DBC, #0a0a0b);fillColor=#0050ef;fontColor=#ffffff;" vertex="1" parent="1">
          <mxGeometry x="170" y="280" width="180" height="270" as="geometry" />
        </mxCell>
        <mxCell id="bZb782lT2qDtfBGyyS4E-3" value="&lt;div style=&quot;font-family: Menlo, Monaco, &amp;quot;Courier New&amp;quot;, monospace; line-height: 18px; white-space: pre; color: rgb(204, 204, 204);&quot;&gt;CAB SERVICE&lt;/div&gt;&lt;div style=&quot;color: rgb(204, 204, 204); font-family: Menlo, Monaco, &amp;quot;Courier New&amp;quot;, monospace; line-height: 18px; white-space: pre;&quot;&gt;&lt;span style=&quot;color: rgb(156, 220, 254);&quot;&gt;&lt;font style=&quot;font-size: 9px;&quot;&gt;&lt;b&gt;&lt;br&gt;&lt;/b&gt;&lt;/font&gt;&lt;/span&gt;&lt;/div&gt;&lt;div style=&quot;color: rgb(204, 204, 204); font-family: Menlo, Monaco, &amp;quot;Courier New&amp;quot;, monospace; line-height: 18px; white-space: pre;&quot;&gt;&lt;span style=&quot;color: rgb(156, 220, 254);&quot;&gt;&lt;font style=&quot;font-size: 9px;&quot;&gt;&lt;b&gt;USER PROFILE&lt;/b&gt;&lt;/font&gt;&lt;/span&gt;&lt;/div&gt;&lt;div style=&quot;color: rgb(204, 204, 204); font-family: Menlo, Monaco, &amp;quot;Courier New&amp;quot;, monospace; line-height: 18px; white-space: pre;&quot;&gt;&lt;span style=&quot;color: rgb(156, 220, 254);&quot;&gt;&lt;font style=&quot;font-size: 9px;&quot;&gt;&lt;b&gt;&lt;br&gt;&lt;/b&gt;&lt;/font&gt;&lt;/span&gt;&lt;/div&gt;&lt;div style=&quot;color: rgb(204, 204, 204); font-family: Menlo, Monaco, &amp;quot;Courier New&amp;quot;, monospace; line-height: 18px; white-space: pre;&quot;&gt;&lt;span style=&quot;color: rgb(156, 220, 254);&quot;&gt;&lt;font style=&quot;font-size: 9px;&quot;&gt;&lt;b&gt;userName : abcdef&lt;/b&gt;&lt;/font&gt;&lt;/span&gt;&lt;/div&gt;&lt;div style=&quot;color: rgb(204, 204, 204); line-height: 18px; white-space: pre; font-family: Menlo, Monaco, &amp;quot;Courier New&amp;quot;, monospace;&quot;&gt;&lt;span style=&quot;color: rgb(156, 220, 254);&quot;&gt;&lt;b&gt;&lt;div style=&quot;color: rgb(204, 204, 204); line-height: 18px;&quot;&gt;&lt;span style=&quot;color: rgb(156, 220, 254);&quot;&gt;&lt;font style=&quot;font-size: 9px;&quot;&gt;userEmailId: abc@xyz.com&lt;/font&gt;&lt;/span&gt;&lt;/div&gt;&lt;div style=&quot;color: rgb(204, 204, 204); line-height: 18px;&quot;&gt;&lt;span style=&quot;color: rgb(156, 220, 254);&quot;&gt;&lt;font style=&quot;font-size: 9px;&quot;&gt;userPhoneNumber: 00000000&lt;/font&gt;&lt;/span&gt;&lt;/div&gt;&lt;div style=&quot;color: rgb(204, 204, 204); line-height: 18px;&quot;&gt;&lt;span style=&quot;color: rgb(156, 220, 254);&quot;&gt;&lt;font style=&quot;font-size: 9px;&quot;&gt;userIdentityNumber: XYZEF&lt;/font&gt;&lt;/span&gt;&lt;/div&gt;&lt;div style=&quot;color: rgb(204, 204, 204); line-height: 18px;&quot;&gt;&lt;span style=&quot;color: rgb(156, 220, 254);&quot;&gt;&lt;font style=&quot;font-size: 9px;&quot;&gt;userNationality: DFGHGHJ&lt;/font&gt;&lt;/span&gt;&lt;/div&gt;&lt;/b&gt;&lt;/span&gt;&lt;/div&gt;" style="text;html=1;align=left;verticalAlign=middle;whiteSpace=wrap;rounded=0;" vertex="1" parent="1">
          <mxGeometry x="190" y="330" width="140" height="160" as="geometry" />
        </mxCell>
      </root>
    </mxGraphModel>
  </diagram>
</mxfile>
